<svg width="25" height="20" viewBox="0 0 25 20" fill="none" xmlns="http://www.w3.org/2000/svg">
<g clip-path="url(#clip0_12_157)">
<path d="M12.5 0C13.1914 0 13.75 0.558594 13.75 1.25V3.75H18.4375C19.9922 3.75 21.25 5.00781 21.25 6.5625V17.1875C21.25 18.7422 19.9922 20 18.4375 20H6.5625C5.00781 20 3.75 18.7422 3.75 17.1875V6.5625C3.75 5.00781 5.00781 3.75 6.5625 3.75H11.25V1.25C11.25 0.558594 11.8086 0 12.5 0ZM8.125 15C7.78125 15 7.5 15.2812 7.5 15.625C7.5 15.9688 7.78125 16.25 8.125 16.25H9.375C9.71875 16.25 10 15.9688 10 15.625C10 15.2812 9.71875 15 9.375 15H8.125ZM11.875 15C11.5312 15 11.25 15.2812 11.25 15.625C11.25 15.9688 11.5312 16.25 11.875 16.25H13.125C13.4688 16.25 13.75 15.9688 13.75 15.625C13.75 15.2812 13.4688 15 13.125 15H11.875ZM15.625 15C15.2812 15 15 15.2812 15 15.625C15 15.9688 15.2812 16.25 15.625 16.25H16.875C17.2188 16.25 17.5 15.9688 17.5 15.625C17.5 15.2812 17.2188 15 16.875 15H15.625ZM10.3125 10C10.3125 9.5856 10.1479 9.18817 9.85485 8.89515C9.56183 8.60212 9.1644 8.4375 8.75 8.4375C8.3356 8.4375 7.93817 8.60212 7.64515 8.89515C7.35212 9.18817 7.1875 9.5856 7.1875 10C7.1875 10.4144 7.35212 10.8118 7.64515 11.1049C7.93817 11.3979 8.3356 11.5625 8.75 11.5625C9.1644 11.5625 9.56183 11.3979 9.85485 11.1049C10.1479 10.8118 10.3125 10.4144 10.3125 10ZM16.25 11.5625C16.6644 11.5625 17.0618 11.3979 17.3549 11.1049C17.6479 10.8118 17.8125 10.4144 17.8125 10C17.8125 9.5856 17.6479 9.18817 17.3549 8.89515C17.0618 8.60212 16.6644 8.4375 16.25 8.4375C15.8356 8.4375 15.4382 8.60212 15.1451 8.89515C14.8521 9.18817 14.6875 9.5856 14.6875 10C14.6875 10.4144 14.8521 10.8118 15.1451 11.1049C15.4382 11.3979 15.8356 11.5625 16.25 11.5625ZM1.875 8.75H2.5V16.25H1.875C0.839844 16.25 0 15.4102 0 14.375V10.625C0 9.58984 0.839844 8.75 1.875 8.75ZM23.125 8.75C24.1602 8.75 25 9.58984 25 10.625V14.375C25 15.4102 24.1602 16.25 23.125 16.25H22.5V8.75H23.125Z" fill="#1F2937"/>
</g>
<defs>
<clipPath id="clip0_12_157">
<path d="M0 0H25V20H0V0Z" fill="white"/>
</clipPath>
</defs>
</svg>
